<svg width="46" height="46" viewBox="0 0 46 46" fill="none" xmlns="http://www.w3.org/2000/svg">
<path d="M0.500015 22.9943C0.503138 10.5679 10.5793 0.496883 23.0057 0.500006C35.4321 0.503129 45.5031 10.5793 45.5 23.0057C45.4969 35.4321 35.4208 45.5031 22.9944 45.5C10.568 45.4969 0.496892 35.4208 0.500015 22.9943Z" fill="#EFEFEF" fill-opacity="0.3" stroke="#EBEAEA"/>
<path d="M19.4263 14.0231L19.6183 14.0952C19.7942 14.2072 19.9622 14.3192 20.1222 14.4313C20.2821 14.5593 20.4261 14.7034 20.5541 14.8634L20.698 15.0074C20.81 15.1035 20.922 15.1915 21.034 15.2715C21.1299 15.3675 21.2259 15.4636 21.3219 15.5596L21.8978 16.0877C22.0097 16.2158 22.1377 16.3358 22.2817 16.4478C22.4096 16.5599 22.5376 16.6719 22.6656 16.7839C22.9055 16.992 23.1455 17.184 23.3854 17.3601C23.6254 17.5522 23.8573 17.7522 24.0813 17.9603C24.2572 18.1363 24.4412 18.2964 24.6332 18.4404C24.8091 18.6005 24.9931 18.7605 25.185 18.9206C25.361 19.0646 25.505 19.2166 25.6169 19.3767C25.6969 19.4727 25.7849 19.5687 25.8809 19.6647C25.9608 19.7607 26.0408 19.8488 26.1208 19.9288C26.2008 20.0248 26.2887 20.1128 26.3847 20.1929C26.4647 20.2889 26.5447 20.3769 26.6247 20.4569C26.9446 20.777 27.2485 21.1051 27.5364 21.4411C27.5844 21.4892 27.6244 21.5452 27.6564 21.6092C27.7043 21.6732 27.7523 21.7292 27.8003 21.7772C27.8323 21.8412 27.8723 21.8972 27.9203 21.9452C28.1762 22.2493 28.2961 22.5933 28.28 22.9773C28.28 23.0893 28.264 23.1693 28.232 23.2173C28.1839 23.2653 28.1279 23.3373 28.0639 23.4333C27.9999 23.5293 27.9519 23.5932 27.9199 23.6252C27.7758 23.7692 27.6398 23.9132 27.5118 24.0571C27.3837 24.2171 27.2557 24.3691 27.1276 24.513C26.9996 24.657 26.8716 24.801 26.7435 24.9449C26.5995 25.1049 26.4634 25.2649 26.3354 25.4248C26.2874 25.4728 26.2554 25.5128 26.2394 25.5448C26.0633 25.7688 25.8873 25.9767 25.7112 26.1687C25.5192 26.3606 25.3351 26.5606 25.1591 26.7685C24.6789 27.2964 24.2228 27.8243 23.7907 28.3522C23.6146 28.5442 23.4546 28.7361 23.3105 28.9281C23.1505 29.136 22.9904 29.344 22.8304 29.552C22.6543 29.7599 22.4863 29.9599 22.3262 30.1518C22.1502 30.3598 21.9741 30.5677 21.7981 30.7757C21.67 30.9197 21.534 31.0396 21.39 31.1356C21.2299 31.2476 21.0619 31.3355 20.8859 31.3995L20.8619 31.3995C20.5899 31.4954 20.3099 31.4873 20.0219 31.3753C20.0059 31.3753 19.9979 31.3673 19.9979 31.3513C19.9819 31.3512 19.9659 31.3512 19.9499 31.3512C19.7419 31.2232 19.574 31.0711 19.446 30.8951C19.2861 30.6391 19.2142 30.4071 19.2302 30.1991C19.2303 29.9111 19.2943 29.6711 19.4224 29.4791C19.4384 29.4311 19.4624 29.3831 19.4944 29.3351C19.5264 29.2871 19.5584 29.2311 19.5905 29.1671C19.7506 28.8152 19.9986 28.4792 20.3347 28.1593C20.4467 28.0634 20.5508 27.9594 20.6468 27.8474C20.6788 27.7834 20.7268 27.7274 20.7908 27.6794C20.8548 27.6475 20.9109 27.5995 20.9589 27.5355C20.9909 27.4875 21.0309 27.4315 21.0789 27.3675C21.1109 27.3035 21.1509 27.2475 21.199 27.1996C21.279 27.1036 21.367 27.0076 21.463 26.9116C21.5591 26.8156 21.6471 26.7277 21.7271 26.6477L22.1592 26.3118C22.1752 26.2958 22.1992 26.2718 22.2312 26.2398C22.2632 26.2238 22.2952 26.1998 22.3272 26.1678C22.4713 26.0239 22.6313 25.8879 22.8073 25.76C22.8713 25.712 22.9353 25.656 22.9994 25.592C23.0634 25.544 23.1274 25.496 23.1914 25.4481C23.2554 25.3841 23.3034 25.3441 23.3354 25.3281C23.5275 25.1681 23.7035 24.9922 23.8636 24.8002C24.0236 24.6083 24.1997 24.4163 24.3917 24.2244C24.5838 24.0484 24.7678 23.8724 24.9438 23.6965C25.0399 23.5845 25.1359 23.4725 25.2319 23.3606C25.328 23.2486 25.424 23.1366 25.52 23.0246L25.568 22.9526C25.6 22.8887 25.6001 22.8327 25.5681 22.7846C25.5361 22.7206 25.5121 22.6806 25.4961 22.6646L25.2322 22.3046C25.1682 22.2085 25.1042 22.1285 25.0403 22.0645L24.5364 21.4884C24.4564 21.4244 24.3844 21.3524 24.3205 21.2723C24.2565 21.1923 24.1925 21.1123 24.1285 21.0323C24.0006 20.8723 23.8646 20.7282 23.7206 20.6002C23.5767 20.4721 23.4327 20.3441 23.2887 20.2161C23.0488 20.024 22.8168 19.816 22.5929 19.5919C22.209 19.2718 21.841 18.9517 21.4891 18.6316C21.3132 18.4876 21.1452 18.3435 20.9852 18.1995C20.8093 18.0555 20.6413 17.9034 20.4813 17.7434C20.2414 17.5033 20.0015 17.2633 19.7615 17.0232C19.5056 16.7991 19.2576 16.5751 19.0177 16.351L18.6818 15.9909C18.6338 15.9429 18.5938 15.8629 18.5618 15.7509C18.5139 15.5909 18.4899 15.4149 18.49 15.2229L18.49 14.9829C18.4901 14.8389 18.5221 14.7269 18.5861 14.6469C18.6501 14.5829 18.7061 14.5109 18.7542 14.4309C18.8022 14.3509 18.8582 14.271 18.9222 14.191C19.0663 14.031 19.2343 13.9751 19.4263 14.0231Z" fill="black"/>
</svg>
