<svg width="46" height="46" viewBox="0 0 46 46" fill="none" xmlns="http://www.w3.org/2000/svg">
<path d="M45.5 23C45.5 35.4264 35.4264 45.5 23 45.5C10.5736 45.5 0.5 35.4264 0.5 23C0.5 10.5736 10.5736 0.5 23 0.5C35.4264 0.5 45.5 10.5736 45.5 23Z" fill="#EFEFEF" fill-opacity="0.3" stroke="#EBEAEA"/>
<path d="M26.576 31.976L26.384 31.904C26.208 31.792 26.04 31.68 25.88 31.568C25.72 31.44 25.576 31.296 25.448 31.136L25.304 30.992C25.192 30.896 25.08 30.808 24.968 30.728C24.872 30.632 24.776 30.536 24.68 30.44L24.104 29.912C23.992 29.784 23.864 29.664 23.72 29.552C23.592 29.44 23.464 29.328 23.336 29.216C23.096 29.008 22.856 28.816 22.616 28.64C22.376 28.448 22.144 28.248 21.92 28.04C21.744 27.864 21.56 27.704 21.368 27.56C21.192 27.4 21.008 27.24 20.816 27.08C20.64 26.936 20.496 26.784 20.384 26.624C20.304 26.528 20.216 26.432 20.12 26.336C20.04 26.24 19.96 26.152 19.88 26.072C19.8 25.976 19.712 25.888 19.616 25.808C19.536 25.712 19.456 25.624 19.376 25.544C19.056 25.224 18.752 24.896 18.464 24.56C18.416 24.512 18.376 24.456 18.344 24.392C18.296 24.328 18.248 24.272 18.2 24.224C18.168 24.16 18.128 24.104 18.08 24.056C17.824 23.752 17.704 23.408 17.72 23.024C17.72 22.912 17.736 22.832 17.768 22.784C17.816 22.736 17.872 22.664 17.936 22.568C18 22.472 18.048 22.408 18.08 22.376C18.224 22.232 18.36 22.088 18.488 21.944C18.616 21.784 18.744 21.632 18.872 21.488C19 21.344 19.128 21.2 19.256 21.056C19.4 20.896 19.536 20.736 19.664 20.576C19.712 20.528 19.744 20.488 19.76 20.456C19.936 20.232 20.112 20.024 20.288 19.832C20.48 19.64 20.664 19.44 20.84 19.232C21.32 18.704 21.776 18.176 22.208 17.648C22.384 17.456 22.544 17.264 22.688 17.072C22.848 16.864 23.008 16.656 23.168 16.448C23.344 16.24 23.512 16.04 23.672 15.848C23.848 15.64 24.024 15.432 24.2 15.224C24.328 15.08 24.464 14.96 24.608 14.864C24.768 14.752 24.936 14.664 25.112 14.6H25.136C25.408 14.504 25.688 14.512 25.976 14.624C25.992 14.624 26 14.632 26 14.648C26.016 14.648 26.032 14.648 26.048 14.648C26.256 14.776 26.424 14.928 26.552 15.104C26.712 15.36 26.784 15.592 26.768 15.8C26.768 16.088 26.704 16.328 26.576 16.52C26.56 16.568 26.536 16.616 26.504 16.664C26.472 16.712 26.44 16.768 26.408 16.832C26.248 17.184 26 17.52 25.664 17.84C25.552 17.936 25.448 18.04 25.352 18.152C25.32 18.216 25.272 18.272 25.208 18.32C25.144 18.352 25.088 18.4 25.04 18.464C25.008 18.512 24.968 18.568 24.92 18.632C24.888 18.696 24.848 18.752 24.8 18.8C24.72 18.896 24.632 18.992 24.536 19.088C24.44 19.184 24.352 19.272 24.272 19.352L23.84 19.688C23.824 19.704 23.8 19.728 23.768 19.76C23.736 19.776 23.704 19.8 23.672 19.832C23.528 19.976 23.368 20.112 23.192 20.24C23.128 20.288 23.064 20.344 23 20.408C22.936 20.456 22.872 20.504 22.808 20.552C22.744 20.616 22.696 20.656 22.664 20.672C22.472 20.832 22.296 21.008 22.136 21.2C21.976 21.392 21.8 21.584 21.608 21.776C21.416 21.952 21.232 22.128 21.056 22.304C20.96 22.416 20.864 22.528 20.768 22.64C20.672 22.752 20.576 22.864 20.48 22.976L20.432 23.048C20.4 23.112 20.4 23.168 20.432 23.216C20.464 23.28 20.488 23.32 20.504 23.336L20.768 23.696C20.832 23.792 20.896 23.872 20.96 23.936L21.464 24.512C21.544 24.576 21.616 24.648 21.68 24.728C21.744 24.808 21.808 24.888 21.872 24.968C22 25.128 22.136 25.272 22.28 25.4C22.424 25.528 22.568 25.656 22.712 25.784C22.952 25.976 23.184 26.184 23.408 26.408C23.792 26.728 24.16 27.048 24.512 27.368C24.688 27.512 24.856 27.656 25.016 27.8C25.192 27.944 25.36 28.096 25.52 28.256C25.76 28.496 26 28.736 26.24 28.976C26.496 29.2 26.744 29.424 26.984 29.648L27.32 30.008C27.368 30.056 27.408 30.136 27.44 30.248C27.488 30.408 27.512 30.584 27.512 30.776V31.016C27.512 31.16 27.48 31.272 27.416 31.352C27.352 31.416 27.296 31.488 27.248 31.568C27.2 31.648 27.144 31.728 27.08 31.808C26.936 31.968 26.768 32.024 26.576 31.976Z" fill="white"/>
</svg>
