<svg width="90" height="44" viewBox="0 0 90 44" fill="none" xmlns="http://www.w3.org/2000/svg">
<path d="M14.52 31.618L16.17 28.714C16.302 27.922 16.302 27.526 16.302 27.262V26.734L14.388 24.358C14.124 24.358 13.662 24.358 12.012 24.952L11.946 25.084C11.484 25.348 11.418 25.48 11.088 25.744V25.942L10.824 26.14L9.108 28.186L8.25 27.46L7.788 26.932H7.854L7.458 26.536L7.392 26.932V27.46C7.458 27.724 7.722 28.186 7.524 28.516L7.59 28.582C7.59 29.11 7.59 29.836 7.722 29.902C7.722 30.034 7.788 30.232 7.788 30.496V33.532C8.118 34.324 7.92 34.654 7.854 35.05L7.92 35.578C8.052 36.172 7.92 36.568 7.92 36.898C8.25 37.162 8.58 36.898 8.976 36.7L10.164 36.106L10.692 35.908C10.626 35.776 10.362 35.974 10.956 35.314L11.484 34.786L11.88 34.522C12.606 33.862 12.804 33.532 13.068 33.202L13.992 32.278L14.52 31.618ZM18.216 26.668V28.45L17.622 29.704C17.028 31.288 16.5 32.08 16.302 32.278L16.104 32.542C15.972 32.806 15.774 33.004 15.51 33.268L15.642 33.334C15.444 33.598 15.246 33.796 15.048 33.994C14.652 34.456 14.19 34.918 13.662 35.314C13.332 35.578 13.002 35.908 12.606 36.172C12.474 36.172 12.012 36.502 11.484 36.964C11.154 37.162 10.494 37.822 10.032 38.152C10.164 37.954 9.768 38.218 9.438 38.482L8.514 39.076C8.052 39.34 7.656 39.538 7.26 39.802L6.864 40C6.468 40.198 6.006 40.528 5.478 40.924C5.082 41.188 4.554 41.452 4.092 41.848C4.224 41.65 4.224 41.056 4.422 40.594C4.488 40.33 4.554 40.066 4.686 39.868C5.148 39.34 5.61 39.076 6.006 38.812L6.732 38.284L7.524 37.756C7.128 37.69 6.864 37.624 6.666 37.426C6.468 37.294 6.402 37.03 6.402 36.832L6.27 36.634V36.172L6.336 35.644L6.204 35.116L6.27 34.654L5.808 33.598L5.94 32.806V32.41C5.94 32.278 5.874 31.75 5.874 31.618H5.94V31.354L5.742 30.298V29.506L5.478 28.45C5.28 27.856 5.412 27.724 5.412 27.394L5.478 26.998L5.544 26.668L5.412 26.074V23.434C5.412 22.312 5.346 22.114 5.346 21.85V20.992L5.412 20.926V20.464C4.752 20.398 5.478 19.738 5.808 19.54H5.61L5.94 18.946L6.006 19.012L5.94 18.418H6.006V17.692L6.27 17.758C6.27 17.494 6.468 17.23 6.732 16.9L7.458 17.164V19.144L7.59 19.672L7.458 19.804L7.656 20.002L7.524 20.2L7.59 20.728V21.85L7.722 22.972V23.698L7.656 24.292C7.92 24.82 7.524 25.018 7.59 25.018V26.074L7.458 26.404C8.052 25.81 8.58 25.282 8.976 24.952L9.24 24.754L9.438 24.622L9.636 24.424C9.702 24.358 9.966 23.83 10.098 23.764L10.494 23.434L10.56 23.236L12.606 20.464L13.002 19.936L13.068 19.672L13.53 18.682C13.992 17.758 14.124 17.56 14.322 17.296L14.718 16.108L15.18 15.382V15.184L15.642 14.854V14.392L15.708 13.534L15.84 12.61L15.972 12.478V11.158C15.642 9.97 15.51 9.706 15.444 9.508L15.312 9.046C14.85 8.716 14.784 8.716 13.794 7.462C13.068 7.66 12.474 7.462 12.21 7.33L10.296 7.66L9.966 7.726C9.174 7.924 8.976 8.122 8.844 8.188L8.58 8.254L7.854 8.32L7.194 8.914L6.798 8.782C6.204 9.178 6.006 9.442 5.808 9.508L5.214 10.036L4.488 10.168H4.422C4.158 10.366 3.96 10.564 3.762 10.696L3.168 11.092C3.168 11.224 3.102 11.488 2.574 11.686L2.442 12.214L1.716 13.732V13.864L2.178 15.118L2.244 15.382L2.178 16.24C1.716 16.042 1.254 15.91 1.122 15.514L1.056 15.448C0.858 15.25 0.66 15.052 0.33 14.458H0.528V14.194L0.594 12.874L0.924 11.752C2.64 9.508 2.904 9.31 3.036 9.244C3.432 8.848 3.762 8.584 4.092 8.32L4.554 7.99C6.402 6.67 6.996 6.472 7.722 6.274L8.118 5.944C8.448 5.878 9.174 5.68 9.306 5.812C9.438 5.548 9.834 5.35 10.23 5.284C10.758 5.152 11.154 5.152 11.484 5.152L12.606 5.218L13.134 5.284C14.52 5.878 14.784 5.944 15.312 6.142L15.444 6.472H15.774L16.5 7.132L16.698 7.396L17.424 8.254L17.622 8.848C17.952 9.574 18.018 9.97 18.216 10.234C18.216 10.432 18.216 10.894 18.282 11.29V11.752L18.216 13.006C18.216 13.534 18.084 13.666 18.15 13.666C18.018 13.93 17.886 14.26 17.886 14.326C17.688 14.788 17.556 14.986 17.424 15.382C17.424 15.778 17.16 16.306 16.83 17.098C16.5 17.758 16.302 18.352 16.038 18.748L15.84 18.946L15.18 20.068L14.586 20.926C14.124 21.652 14.058 21.916 13.86 22.048L13.662 22.444H14.784C15.312 22.444 15.576 22.576 15.906 22.642C16.764 23.104 17.226 23.5 17.424 23.764C17.754 24.226 18.084 24.82 17.952 25.282C18.018 25.282 18.084 25.546 18.15 25.81C18.216 26.14 18.216 26.404 18.216 26.668ZM41.0097 34.456C40.5477 34.918 39.8877 34.852 39.4257 34.852L39.0957 35.116C38.0397 35.38 37.5117 35.446 36.9837 35.512C36.3237 35.578 35.6637 35.512 35.5317 35.512C35.0697 35.644 35.0697 35.644 34.4097 35.842L33.8817 35.908L33.6177 35.842C33.3537 35.908 32.9577 36.04 32.8917 36.106L32.0337 35.842C31.4397 35.908 30.8457 35.908 30.2517 35.842C29.7897 35.842 29.3937 35.776 28.9317 35.776V35.578L28.7337 35.512H28.4037V35.446C27.5457 35.578 27.4137 35.314 27.2817 34.918C26.1597 34.984 26.6217 34.852 26.2917 34.984L25.4997 34.456C24.9717 34.324 24.5097 33.928 24.3777 33.664L24.3117 33.334L23.9817 33.268L23.5857 32.938L22.8597 32.41C22.3977 31.75 22.1997 31.288 22.3977 31.156L22.1997 31.09C22.1337 31.024 21.4077 30.232 21.7377 30.1V29.11C21.5397 28.582 21.5397 28.384 21.6057 28.186L21.6717 27.526L21.8037 26.866L21.7377 26.668L21.8037 26.47V26.074L21.8697 25.546L22.3977 24.886L22.7277 24.292L22.9917 24.16L23.1237 23.632V23.566L23.9817 22.18L24.3117 21.982L24.7077 21.586C24.9717 21.256 24.8397 21.124 25.1697 20.926L25.8297 20.398H26.0277L26.6217 19.87L26.8857 19.408C27.6777 19.078 27.8097 19.144 27.9417 19.144L28.9977 18.484L29.5257 18.22C29.8557 18.22 30.1857 18.22 30.2517 18.088C30.9117 18.088 31.1757 18.088 31.4397 18.286L32.6277 18.88L33.4197 18.814V19.144C33.7497 19.408 34.0137 19.606 34.1457 19.804C34.4757 20.134 34.6077 20.332 34.8057 20.53C35.3337 21.19 35.3997 21.586 35.3337 22.114C35.3997 22.312 35.3997 22.774 35.3997 23.302V23.368H35.3337C35.2677 23.566 35.1357 23.83 35.0037 24.028C34.6737 24.556 34.0797 25.084 33.4197 25.678L32.8917 25.81L32.0337 26.338L31.3737 26.602L31.1757 26.668C30.8457 26.8 30.6477 26.8 30.5157 26.866L30.4497 26.932H30.0537C29.8557 26.998 29.7237 27.262 28.7997 27.262H28.2717V26.998C28.0077 27.064 27.7437 27.13 27.4797 27.13C27.0837 27.13 26.7537 27.196 26.2917 26.998C25.3017 26.998 24.9717 27.064 24.5097 27.064L23.8497 26.734L23.7837 27.724L23.7177 28.45L23.7837 28.516L23.5857 29.176L23.8497 29.704C24.1137 30.166 24.2457 30.496 24.3777 30.76C24.5097 31.024 24.6417 31.354 24.8397 31.552C25.3677 32.146 25.8297 32.476 26.2917 32.74C26.5557 32.872 26.8857 32.938 27.1497 33.004C27.3477 33.268 28.1397 33.4 28.9317 33.532C29.5257 33.73 30.1857 33.796 30.6477 33.862C30.9117 33.928 31.2417 33.928 31.5057 33.994L33.9477 34.126H34.6077C35.0697 34.06 35.5977 33.994 36.0597 33.928L36.9177 33.796C38.3037 33.664 38.8977 33.598 39.5577 33.466C39.7557 33.4 40.0197 33.4 40.2177 33.334C40.6797 33.202 41.0757 33.004 41.6037 32.806C41.8017 32.74 41.6697 34.192 41.0097 34.456ZM24.9717 25.216H27.8097C28.0077 25.15 28.6017 25.15 28.9317 25.15H29.1957L29.4597 25.216C29.8557 25.084 30.1857 24.82 30.3837 24.754C30.6477 24.622 30.9777 24.556 31.1757 24.556L32.4297 23.83C32.6937 23.566 32.8917 23.302 32.9577 23.17L33.2877 22.642L33.1557 21.586L32.5617 20.86L31.5717 20.398C31.4397 20.332 31.1757 20.332 30.9117 20.332L30.6477 20.2L29.1297 20.728C28.8657 20.926 28.4697 21.058 28.2717 21.058L26.8857 22.18L26.3577 22.708L25.6317 23.368L25.3017 23.896C24.8397 24.754 24.7737 24.82 24.5097 25.084L24.4437 25.15C24.5097 25.15 24.7077 25.216 24.9717 25.216ZM42.4813 42.706C42.4813 42.706 43.1413 40.528 44.0653 41.32C43.7353 40.726 44.3293 40.66 44.9893 40.594C46.0453 39.34 46.4413 38.944 46.7053 38.614L46.9693 37.624V36.436L46.7053 35.842C46.3753 35.248 46.4413 34.786 46.1113 33.994V34.192L45.5833 32.938L45.4513 32.344C45.1213 32.146 44.9233 32.542 45.0553 30.628L44.4613 30.694L44.2633 30.364L43.9333 30.1C43.6033 30.1 43.5373 30.1 43.8673 29.572L43.0753 28.648L42.3493 27.658L41.4913 26.602L40.6993 25.612C40.2373 25.018 40.1053 24.82 40.0393 24.226C39.9073 24.292 39.5113 23.764 39.1813 23.368H39.4453L39.2473 22.906L39.1813 22.774C39.1153 22.576 38.9833 22.18 38.8513 21.916L38.7853 20.86L38.6533 18.418L38.9833 17.758L39.3133 16.768C40.0393 15.118 40.2373 14.854 41.2273 14.458C40.8973 14.392 41.0953 14.194 41.2273 14.194L42.0193 13.468L42.0853 13.402C42.0853 13.468 42.0853 13.468 42.6133 12.874L43.4713 12.148L44.3293 11.686L44.5933 11.488C45.7153 11.158 46.0453 10.96 46.3093 10.894L46.7713 10.63L48.6193 10.762C49.2793 10.828 49.8073 11.092 50.4013 11.29L50.2693 11.422L50.7973 11.488L51.0613 12.148L51.9853 12.94H52.1833L52.2493 13.6H52.4473V13.864H52.7113L52.7773 14.458L52.9093 15.712L52.8433 16.306L52.7773 17.23C52.7113 17.956 52.3813 18.286 52.3813 18.748L51.9853 19.87C51.3913 20.662 51.1273 21.124 51.0613 21.322L50.2693 22.444C49.7413 23.434 49.6753 23.896 49.6753 24.292C49.6753 24.094 49.0813 23.104 49.0153 22.51C48.8833 22.114 48.8833 21.982 48.8833 21.586L49.3453 21.322H49.4773L49.5433 20.86L49.7413 20.398C50.5333 18.088 50.5993 17.428 50.6653 16.834V16.372L50.7313 16.108C50.5993 15.976 50.5333 15.778 50.6653 15.514L50.3353 14.26L50.0053 13.93L49.0153 13.27L48.9493 13.138C48.3553 12.94 48.0253 12.874 47.8933 12.808L47.8273 12.742L47.4973 12.94L45.5173 13.666L44.5933 14.062C44.2633 14.392 43.8013 14.854 43.7353 14.722L42.4153 16.042L42.0853 16.57L41.8873 16.702L41.8213 17.032L41.3593 17.626L41.2933 17.758C40.6993 20.266 40.6993 20.53 40.7653 20.794L40.9633 21.652V22.18L41.2933 22.708C41.7553 23.434 42.0853 24.028 42.4153 24.49L42.7453 24.886C42.9433 25.15 43.1413 25.48 43.3393 25.744C43.7353 26.272 44.1973 26.8 44.5933 27.196C44.4613 27.196 44.7253 27.526 44.9233 27.856C45.1213 28.12 45.2533 28.45 45.4513 28.714L46.1113 29.836L46.5733 30.496C46.9033 31.486 46.9033 31.684 47.0353 31.882L47.1673 31.948C47.2333 32.014 47.4973 32.542 47.4973 32.476C47.6953 32.938 47.8273 33.136 47.9593 33.532L48.1573 33.862C48.3553 34.522 48.4873 35.116 48.5533 35.644L48.6193 36.172C48.6193 37.492 48.4873 38.086 48.3553 38.746L47.9593 40.132C47.3653 40.594 47.2333 40.858 47.0353 41.056C46.6393 41.32 46.3093 41.518 46.0453 41.65C45.6493 41.848 45.1873 41.98 44.7913 42.046L44.5273 42.178C43.6033 42.376 42.0853 42.838 42.4813 42.706ZM66.9271 20.86L67.0591 20.992L65.9371 21.256C65.8051 21.52 65.8711 21.85 65.9371 21.982L65.7391 22.708C66.0031 24.292 66.0691 24.82 66.1351 25.282V25.546C66.2671 26.47 66.2671 26.932 66.3331 27.328L66.3991 27.658C66.4651 28.252 66.4651 28.648 66.4651 28.978C66.5311 30.1 66.5971 30.496 66.5971 30.892C66.5971 31.42 66.6631 31.948 66.5971 32.542C66.7291 33.334 66.7951 33.73 66.8611 34.192H66.9271C66.9931 34.984 67.0591 35.578 67.0591 36.106V36.238C67.0591 37.228 67.1251 37.756 67.1911 38.35C67.1911 38.614 67.2571 38.944 67.3231 39.34V40.792C67.3231 40.99 67.3891 41.188 67.5871 41.452L67.5211 42.178C67.1251 42.178 67.3231 42.178 66.7291 42.178C66.4651 42.046 66.0691 41.716 66.0691 41.518L65.8051 40.594C65.6071 39.802 65.5411 39.538 65.5411 39.274C65.4751 38.68 65.5411 38.02 65.6731 37.558H65.4751L65.3431 36.304C65.1451 35.974 65.0791 35.776 65.0791 35.512V35.05C64.7491 32.542 64.6831 32.146 64.6831 31.75V31.09L64.7491 30.364C64.4851 30.1 64.5511 30.232 64.5511 29.242L64.6171 29.11L64.4191 27.79V27.46L64.2871 26.536L64.1551 26.008H64.0891C64.0891 25.81 64.0231 25.48 64.1551 25.282L64.0231 24.16L63.8251 23.302L63.6271 22.774L63.8911 21.982V21.916L63.5611 21.718L62.7691 21.85L61.3831 22.312L59.9311 22.774C59.2051 23.038 58.7431 23.302 58.8091 23.302H58.7431L58.0831 23.434L57.2251 23.896C57.2251 23.962 57.3571 24.028 55.5091 24.49L54.1891 24.226L53.7931 23.038C53.9251 23.038 54.3211 22.972 54.5191 22.906V22.774L55.4431 22.378L55.9051 22.312C55.8391 21.916 56.3011 21.982 56.3671 21.982C57.0931 21.454 57.3571 21.256 57.4891 21.256L58.2151 20.992C58.6771 20.728 59.1391 20.662 59.2711 20.596H59.6671L60.1951 20.332C60.3931 20.266 60.7231 20.068 61.1191 20.002C61.5811 19.804 61.7131 19.87 61.8451 19.87H62.0431L62.5051 19.672L63.2311 19.54L63.4951 19.408H63.5611L63.4291 18.22V18.022C63.2311 17.692 63.2971 17.362 63.6931 17.296L63.2971 16.966V16.504L63.4291 15.448L63.3631 15.184C63.2311 15.184 63.3631 14.656 63.2971 14.524L63.0991 13.204V13.138L63.0331 12.676L62.9671 11.62L62.9011 9.706C62.7691 8.914 62.7031 8.848 62.8351 8.32C62.5711 7.726 62.5711 7.396 62.7691 6.868C62.3731 6.142 62.3731 6.076 62.6371 5.878C62.3731 5.68 62.5711 5.416 62.8351 5.02C62.3731 4.558 62.4391 4.294 62.7031 4.096C62.6371 2.644 62.8351 2.314 63.4291 2.38L63.0991 1.72L64.6831 2.116C64.6831 2.446 64.7491 2.908 64.4191 2.974C64.6831 3.7 64.7491 4.096 64.7491 5.284C64.8151 5.746 64.8151 6.076 64.6171 5.878C64.9471 7.396 65.0131 7.858 65.0131 8.188C65.1451 8.98 65.1451 9.178 65.1451 9.442C65.1451 9.838 65.2771 10.234 65.3431 10.696L65.2111 10.828V10.894L65.3431 12.082L65.5411 13.006C65.5411 13.072 65.4751 13.732 65.4751 13.798C65.6071 14.26 65.5411 14.788 65.4751 15.052C65.6071 16.372 65.5411 17.098 65.4751 17.56L65.6071 18.814V19.21C65.6731 19.21 65.8711 19.144 66.0691 19.078L66.6631 19.276L66.8611 19.21L67.0591 19.012C67.6531 18.682 68.2471 18.55 68.6431 18.484C69.2371 18.352 69.8971 18.22 70.2931 18.154C70.2931 18.088 70.6231 18.154 70.8211 18.088L71.4811 17.89C72.0091 17.758 72.6031 17.692 73.3951 17.758C73.4611 17.692 73.5271 17.626 73.9231 17.692C74.5831 17.296 75.0451 17.296 75.5071 17.296C76.3651 17.296 76.7611 17.164 77.2891 17.098H77.8831C78.1471 17.164 78.4771 17.164 79.0051 17.032C79.6651 16.834 79.6651 17.692 79.5331 18.088L79.0051 18.55C77.5531 18.946 77.2231 19.012 76.8271 18.946L75.6391 19.078C75.1771 19.342 75.1111 19.21 73.9231 19.474L73.5271 19.54C72.9991 19.672 72.7351 19.672 72.3391 19.738H71.3491L69.8971 20.2L69.1711 20.266L68.5771 20.398H68.4451L68.0491 20.728H67.8511C67.7191 20.794 67.3231 20.86 66.9271 20.86ZM84.0123 14.92L84.2103 14.458L84.2763 14.062L84.5403 12.676L84.7383 12.478L84.8043 11.818L84.9363 11.686L85.0023 10.696L85.3323 9.706L85.3983 8.98L85.6623 8.716C85.5303 8.386 85.5963 8.122 85.7283 7.726C85.6623 7.594 85.9923 7.264 85.9263 6.802L86.1903 5.35H86.4543C86.9823 4.294 86.5203 4.228 86.6523 4.096L87.1143 3.568L87.5103 3.04L87.7743 2.578V2.314C87.9063 2.248 87.9063 1.918 87.9063 1.654L88.3683 1.522V1.39L88.4343 0.861996L89.1603 0.598L89.7543 1.192L89.5563 1.39L89.4243 2.908L89.0943 3.172L88.9623 3.634C88.8303 4.294 88.7643 4.558 88.6323 4.822L88.5003 5.35C88.6323 5.746 88.4343 6.076 88.2363 6.208L88.3683 6.274C88.3023 7.132 88.1703 7.396 88.1043 8.056L87.9723 8.188C87.7743 8.98 87.7743 9.442 87.7743 9.706L87.6423 9.574C87.1143 12.478 86.9163 12.412 86.8503 12.61C86.7843 13.336 86.6523 13.732 86.5203 13.996L86.1243 15.25L86.0583 15.448L85.4643 18.088H85.2663L85.1343 18.22V18.484C85.0023 19.606 85.0023 19.804 85.0023 20.134C84.9363 20.992 84.7383 21.652 84.6063 22.048C84.5403 22.312 84.4083 22.708 84.3423 22.972C84.2763 23.302 84.2103 23.632 84.0783 24.028C83.9463 24.358 83.7483 24.754 83.5503 25.15C83.5503 25.546 83.3523 25.942 83.3523 25.942V26.074H83.5503C83.4183 26.536 83.2863 26.932 83.2203 27.196C83.0883 27.526 83.0883 27.79 82.9563 27.988L82.8903 28.054C82.7583 28.252 82.6923 28.516 82.6263 28.714C82.2963 29.638 82.1643 30.034 82.2303 30.232C81.7683 30.76 81.3723 31.288 81.1743 31.618L80.5143 31.684C80.0523 30.958 80.1183 30.826 80.1843 30.694L80.3163 30.364C80.3823 29.176 80.8443 28.582 81.3063 28.186C80.7783 27.724 80.9103 27.658 81.1083 27.526L81.3723 26.536L81.5703 25.81L81.7683 24.886L81.9003 24.424L82.2303 23.302L82.6923 21.718L82.7583 21.52L82.8243 20.86C83.2203 20.464 83.1543 20.398 83.0883 20.068V19.21L83.1543 19.342L83.2863 18.418H83.2203V18.022L83.3523 17.89C83.3523 17.758 83.3523 17.494 83.5503 17.032L83.6823 16.834L83.6163 16.636L83.6823 16.174C83.8143 15.58 83.9463 15.25 84.0123 14.92ZM79.3263 43.432L77.6103 43.894C76.8183 43.564 77.2143 43.564 77.3463 42.64H77.4123L77.5443 42.376C77.6103 41.518 77.6763 41.65 77.7423 41.65L77.8743 41.386V40.99H77.9403L78.0063 40.792L77.8083 40.726L77.8743 40.066L78.0063 39.604V39.472L79.9863 39.076L80.5143 39.67L80.2503 40.066L80.3823 40.726L80.5803 40.792L80.1183 41.254V41.386H79.9863L79.7883 41.518V41.65L79.5903 42.244L79.3923 42.904L79.3263 43.432Z" fill="#FF914D"/>
</svg>
