<svg width="132" height="32" viewBox="0 0 132 32" fill="none" xmlns="http://www.w3.org/2000/svg">
<path d="M7.29497 18.5445C6.36253 18.5445 5.48494 18.3708 4.6622 18.0234C3.85774 17.6578 3.15384 17.1733 2.5505 16.5699C1.94715 15.9666 1.46265 15.2535 1.09699 14.4308C0.749609 13.608 0.575919 12.7304 0.575919 11.798C0.575919 10.8656 0.749609 9.99712 1.09699 9.19266C1.46265 8.36992 1.94715 7.65688 2.5505 7.05353C3.15384 6.45019 3.85774 5.97483 4.6622 5.62745C5.48494 5.26179 6.36253 5.07895 7.29497 5.07895C8.0263 5.07895 8.7302 5.19779 9.40668 5.43548C10.0832 5.65487 10.7048 5.97483 11.2716 6.39534C11.8383 6.79757 12.3228 7.28207 12.7251 7.84885C13.1456 8.41563 13.4655 9.02811 13.6849 9.68631H16.3451V4.99668H20.5411V18.4074H16.3451V13.8823H13.7124C13.493 14.5588 13.173 15.1895 12.7525 15.7746C12.332 16.3414 11.8383 16.835 11.2716 17.2555C10.7231 17.6578 10.1014 17.9777 9.40668 18.2154C8.7302 18.4348 8.0263 18.5445 7.29497 18.5445ZM7.29497 9.796C6.74648 9.796 6.27112 9.99712 5.86889 10.3993C5.48494 10.7833 5.29297 11.2495 5.29297 11.798C5.29297 12.3465 5.48494 12.8219 5.86889 13.2241C6.27112 13.608 6.74648 13.8 7.29497 13.8C7.84347 13.8 8.30969 13.608 8.69363 13.2241C9.09586 12.8219 9.29698 12.3465 9.29698 11.798C9.29698 11.2495 9.09586 10.7833 8.69363 10.3993C8.30969 9.99712 7.84347 9.796 7.29497 9.796ZM45.78 15.8294L41.8582 18.4348L40.0208 15.4181L37.1412 10.6736L34.2616 15.4181L32.4241 18.4348L30.3947 17.3652C30.1022 17.2007 29.8371 17.0453 29.5994 16.899C29.38 16.7527 29.2246 16.5425 29.1332 16.2682C28.9321 15.738 29.0143 15.1712 29.38 14.5679L29.9285 13.6629L30.9981 11.8803L30.285 10.6736L27.4054 15.4181L25.568 18.4348L23.5385 17.3652C23.246 17.2007 22.9809 17.0453 22.7432 16.899C22.5238 16.7527 22.3684 16.5425 22.277 16.2682C22.0759 15.738 22.1582 15.1712 22.5238 14.5679L23.0723 13.6629L25.4034 9.85085L25.7599 9.24751L28.3379 5.02411H32.2596L33.7131 7.43748L35.194 5.02411H39.1158L41.6663 9.24751L41.8582 9.54918H47.0415V5.02411H51.2375V18.4348H47.0415V13.7452H44.4087L45.78 15.8294ZM41.3098 20.2997C41.7485 19.8974 42.2422 19.6963 42.7907 19.6963H51.3746V31.1599H40.7064V21.7806C40.7064 21.1955 40.9075 20.7019 41.3098 20.2997ZM44.875 25.9766C44.875 26.6713 45.2223 27.0187 45.9171 27.0187H47.1512V23.8649H45.9171C45.2223 23.8649 44.875 24.2123 44.875 24.907V25.9766ZM53.9041 5.60002C54.2881 5.1978 54.7817 4.99668 55.3851 4.99668H64.5175V18.4074H53.3008V7.08096C53.3008 6.47761 53.5019 5.98397 53.9041 5.60002ZM75.076 13.8823H72.0044V18.4074H67.8084V4.99668H72.0044V9.68631H75.076V13.8823ZM57.4693 13.1967C57.4693 13.8914 57.8167 14.2388 58.5115 14.2388H60.2941V9.16524H58.5115C57.8167 9.16524 57.4693 9.51262 57.4693 10.2074V13.1967ZM86.4298 9.57661H88.2124V5.05153H91.997V18.4622H88.2124V13.8549H86.4298V16.3779C86.4298 16.963 86.2287 17.4566 85.8265 17.8589C85.4242 18.2611 84.9215 18.4622 84.3181 18.4622H82.2338V15.1712H76.9957V10.9753H82.2338V10.2896C82.2338 9.59489 81.8865 9.24751 81.1917 9.24751H76.9957V5.05153H86.4298V9.57661ZM93.6151 5.05153H97.3997V18.4622H93.6151V5.05153ZM88.5689 19.7786H91.5034L97.8111 28.6642L94.4378 31.0776L90.0499 24.8796L85.6345 31.0776L83.5228 29.5692C83.2851 29.4047 83.1206 29.1944 83.0292 28.9385C82.9377 28.7191 82.9012 28.4448 82.9195 28.1157C82.956 27.8049 83.1297 27.4301 83.4405 26.9913L88.5689 19.7786Z" fill="#8C959F"/>
<path d="M106.496 7.06028C107.715 6.94266 108.882 7.23187 109.9 7.82944C110.814 7.04524 111.922 6.53646 113.141 6.41905C114.36 6.30143 115.528 6.59063 116.545 7.1882C117.459 6.40421 118.568 5.89543 119.786 5.77781C123.284 5.43999 126.366 8.45172 126.668 12.5043C126.971 16.5569 124.38 20.1157 120.882 20.4533C119.663 20.5709 118.495 20.2817 117.478 19.6842C116.563 20.4681 115.455 20.9769 114.236 21.0946C113.018 21.2122 111.85 20.923 110.833 20.3254C109.918 21.1094 108.81 21.6182 107.591 21.7358C104.093 22.0734 101.012 19.0617 100.709 15.0093C100.407 10.9567 102.998 7.39789 106.496 7.06028Z" fill="#8C959F"/>
<path d="M111.804 6.20835C113.022 6.09074 114.19 6.37994 115.207 6.97751C116.122 6.19332 117.23 5.68453 118.449 5.56712C119.667 5.4495 120.835 5.7387 121.853 6.33627C122.767 5.55229 123.875 5.0435 125.094 4.92588C128.592 4.58806 131.673 7.59979 131.976 11.6524C132.278 15.7049 129.688 19.2638 126.189 19.6014C124.97 19.719 123.803 19.4298 122.785 18.8322C121.871 19.6162 120.763 20.125 119.544 20.2426C118.325 20.3602 117.158 20.071 116.14 19.4735C115.226 20.2575 114.117 20.7662 112.899 20.8839C109.4 21.2215 106.319 18.2097 106.017 14.1574C105.714 10.1048 108.305 6.54597 111.804 6.20835Z" fill="#8C959F"/>
<path d="M105.591 20.6698L100.234 23.9503L102.551 17.7747" fill="#8C959F"/>
<path d="M125.133 14.4325C125.125 14.3613 125.13 14.2896 125.147 14.2177C125.164 14.1458 125.194 14.0799 125.237 14.0204C125.321 13.899 125.431 13.829 125.566 13.8103L125.831 13.7734C125.894 13.7647 125.957 13.7699 126.021 13.7892C126.084 13.8084 126.142 13.8414 126.195 13.8875C126.247 13.9338 126.289 13.9895 126.321 14.0548C126.353 14.1201 126.373 14.188 126.381 14.2593L126.413 14.56C126.43 14.7129 126.396 14.8501 126.313 14.9716C126.272 15.0334 126.223 15.083 126.165 15.1205C126.108 15.158 126.048 15.1811 125.985 15.1897L125.72 15.2266C125.582 15.2456 125.461 15.2048 125.355 15.1045C125.3 15.0585 125.257 15.0042 125.226 14.9417C125.194 14.8793 125.174 14.8097 125.166 14.7331L125.133 14.4325ZM126.063 15.9218C126.241 15.8971 126.4 15.8335 126.541 15.7311L126.562 15.9288C126.568 15.9842 126.565 16.0376 126.551 16.0889C126.538 16.1402 126.517 16.1859 126.49 16.2259C126.462 16.2658 126.428 16.2994 126.387 16.3264C126.346 16.3536 126.301 16.3705 126.252 16.3773L125.688 16.4553C125.611 16.466 125.548 16.5056 125.499 16.5738C125.451 16.642 125.432 16.7196 125.441 16.8067C125.451 16.8937 125.486 16.9639 125.548 17.0168C125.609 17.0698 125.678 17.091 125.756 17.0803L126.32 17.0022C126.381 16.9938 126.441 16.9796 126.5 16.9592C126.56 16.9388 126.614 16.9104 126.665 16.8741C126.771 16.8004 126.86 16.7143 126.932 16.6158C127.006 16.5064 127.058 16.388 127.089 16.2605C127.125 16.127 127.134 15.9902 127.119 15.8503L126.854 13.4148C126.845 13.3276 126.81 13.2574 126.75 13.204C126.689 13.1509 126.62 13.1295 126.543 13.1402C126.49 13.1478 126.444 13.1688 126.406 13.2034C126.369 13.2382 126.34 13.2838 126.32 13.3398C126.235 13.2982 126.147 13.2687 126.056 13.252C125.965 13.2351 125.871 13.2335 125.772 13.2471L125.506 13.284C125.361 13.3039 125.229 13.354 125.108 13.4337C124.987 13.5134 124.886 13.614 124.803 13.7355C124.72 13.8568 124.659 13.9934 124.62 14.145C124.58 14.2966 124.57 14.4529 124.587 14.614L124.62 14.9152C124.638 15.0789 124.682 15.2291 124.752 15.3655C124.823 15.5016 124.911 15.6174 125.018 15.7127C125.124 15.8079 125.244 15.8777 125.379 15.922C125.512 15.9663 125.652 15.9787 125.797 15.9585L126.063 15.9216L126.063 15.9218ZM123.218 13.6537L123.138 13.6648C123.049 13.6772 122.964 13.7011 122.882 13.7365C122.8 13.7719 122.724 13.8173 122.654 13.8725L122.642 13.7336L122.085 13.8109L122.341 16.1688C122.35 16.2533 122.386 16.3225 122.448 16.3768C122.51 16.431 122.579 16.4533 122.654 16.4428C122.731 16.4318 122.794 16.3919 122.841 16.3223C122.888 16.2528 122.907 16.1758 122.898 16.0916L122.756 14.7782C122.747 14.7042 122.753 14.6319 122.772 14.5609C122.792 14.4898 122.822 14.4249 122.863 14.3656C122.949 14.2412 123.058 14.1697 123.191 14.1514L123.271 14.1402C123.404 14.1219 123.525 14.1615 123.635 14.2585C123.745 14.3557 123.808 14.4795 123.824 14.6299L123.967 15.9432C123.976 16.0277 124.011 16.0971 124.072 16.1515C124.133 16.2061 124.202 16.2279 124.28 16.2172C124.357 16.2063 124.42 16.1661 124.467 16.0967C124.514 16.0273 124.533 15.9502 124.524 15.866L124.396 14.6908C124.379 14.53 124.335 14.3815 124.264 14.2455C124.194 14.1093 124.104 13.9938 123.997 13.899C123.889 13.8041 123.768 13.7345 123.634 13.6904C123.499 13.6461 123.361 13.6337 123.218 13.6535M121.603 13.5505C121.649 13.4677 121.667 13.3723 121.655 13.2642L121.616 12.9002L120.999 12.9857L121.039 13.3497C121.05 13.458 121.088 13.5456 121.151 13.6133C121.214 13.6809 121.292 13.7083 121.386 13.6951C121.484 13.6815 121.556 13.6333 121.603 13.5505ZM121.916 16.4304C121.963 16.3478 121.98 16.2508 121.968 16.1402L121.722 13.8772L121.105 13.9627L121.351 16.2257C121.363 16.3365 121.401 16.4255 121.464 16.493C121.527 16.5606 121.605 16.588 121.699 16.575C121.797 16.5614 121.869 16.5132 121.916 16.4304ZM119.485 16.5645L119.342 15.2511C119.326 15.1008 119.361 14.9634 119.446 14.8392C119.532 14.7149 119.642 14.6435 119.774 14.6251L119.914 14.6058C120.047 14.5874 120.17 14.6264 120.285 14.723C120.337 14.7693 120.379 14.8243 120.411 14.8884C120.443 14.9525 120.463 15.021 120.471 15.0948L120.614 16.4082C120.623 16.4926 120.658 16.562 120.72 16.6164C120.782 16.6706 120.851 16.6926 120.928 16.6819C120.965 16.6768 120.999 16.6632 121.03 16.6415C121.061 16.6199 121.088 16.5933 121.11 16.562C121.133 16.5309 121.15 16.4951 121.161 16.4547C121.172 16.4143 121.175 16.3729 121.171 16.3309L121.043 15.156C121.025 14.9951 120.981 14.8466 120.909 14.7106C120.837 14.5747 120.748 14.4595 120.64 14.3646C120.532 14.2696 120.412 14.2 120.278 14.1557C120.144 14.1114 120.004 14.0993 119.859 14.1194L119.719 14.1388C119.63 14.1512 119.546 14.1751 119.465 14.2101C119.385 14.2453 119.31 14.2906 119.24 14.3456L119.141 13.4036L118.584 13.4809L118.928 16.642C118.937 16.7264 118.972 16.7958 119.033 16.8502C119.094 16.9048 119.163 16.9266 119.24 16.9159C119.318 16.905 119.38 16.8648 119.428 16.7954C119.475 16.726 119.494 16.649 119.485 16.5645ZM118.079 14.3662L118.023 13.844L117.465 13.9213L117.522 14.4435L117.224 14.4849C117.147 14.4956 117.085 14.5349 117.038 14.6031C116.991 14.6713 116.972 14.7487 116.981 14.8357C116.991 14.9228 117.026 14.9928 117.086 15.0462C117.146 15.0995 117.215 15.1205 117.292 15.11L117.59 15.0686L117.778 16.8014C117.788 16.8856 117.822 16.9553 117.883 17.0096C117.944 17.064 118.013 17.0861 118.091 17.0753C118.169 17.0644 118.231 17.0243 118.278 16.9548C118.326 16.8854 118.345 16.8084 118.336 16.7239L118.147 14.9912L118.564 14.9333L118.496 14.3081L118.079 14.3662ZM115.502 15.7515C115.492 15.6139 115.526 15.487 115.606 15.3716C115.647 15.3123 115.696 15.2641 115.752 15.2268C115.809 15.1895 115.871 15.1663 115.939 15.1568L116.233 15.116C116.301 15.1067 116.361 15.1251 116.413 15.1712C116.466 15.2176 116.496 15.2763 116.504 15.3475C116.511 15.4188 116.495 15.4833 116.455 15.541C116.415 15.5988 116.362 15.6324 116.294 15.6417L115.502 15.7515ZM115.886 14.67C115.741 14.6902 115.608 14.7401 115.488 14.8198C115.367 14.8993 115.265 14.9998 115.182 15.1209C115.099 15.2423 115.039 15.3786 114.999 15.5298C114.96 15.6812 114.949 15.8374 114.967 15.9982L114.999 16.299C115.017 16.4625 115.061 16.6121 115.132 16.7484C115.202 16.8846 115.291 17.0002 115.397 17.0951C115.504 17.1901 115.624 17.2597 115.758 17.3042C115.892 17.3485 116.031 17.3606 116.176 17.3405L116.898 17.2403L116.815 16.4768L116.093 16.5769C116.025 16.5861 115.96 16.5806 115.898 16.56C115.835 16.5392 115.777 16.5056 115.725 16.4594C115.659 16.3989 115.607 16.3245 115.569 16.236L116.347 16.128C116.435 16.1157 116.519 16.0862 116.597 16.0392C116.674 15.9923 116.741 15.9276 116.796 15.8448C116.849 15.7677 116.889 15.6808 116.914 15.5836C116.938 15.4864 116.946 15.3877 116.935 15.2876C116.924 15.1873 116.896 15.0942 116.851 15.0081C116.806 14.922 116.749 14.8476 116.681 14.7848C116.61 14.7224 116.532 14.6777 116.446 14.6507C116.36 14.6239 116.272 14.6165 116.184 14.6286L115.886 14.67ZM114.739 16.03C114.721 15.8691 114.677 15.7206 114.607 15.5844C114.536 15.4483 114.448 15.3327 114.341 15.2377C114.235 15.1426 114.114 15.0732 113.98 15.0287C113.846 14.9844 113.707 14.9722 113.562 14.9924L113.481 15.0035C113.327 15.025 113.187 15.0791 113.062 15.1659C112.938 15.2528 112.834 15.3622 112.751 15.4942C112.64 15.3891 112.514 15.3117 112.373 15.2614C112.232 15.2114 112.087 15.1968 111.937 15.2173L111.85 15.2297C111.761 15.2421 111.677 15.2658 111.598 15.3008C111.518 15.3358 111.444 15.3811 111.374 15.4363L111.358 15.2979L110.801 15.3751L111.058 17.7331C111.067 17.8175 111.101 17.8869 111.162 17.9415C111.222 17.9959 111.291 18.0179 111.368 18.0072C111.445 17.9965 111.508 17.9564 111.556 17.8867C111.604 17.8171 111.624 17.7401 111.615 17.6558L111.472 16.3422C111.464 16.2685 111.468 16.1962 111.486 16.1255C111.503 16.0549 111.532 15.99 111.573 15.9307C111.664 15.8056 111.773 15.7342 111.902 15.7165L111.989 15.7043C112.118 15.6864 112.24 15.7257 112.354 15.8223C112.407 15.8687 112.449 15.9237 112.481 15.9875C112.513 16.0514 112.533 16.1202 112.541 16.1941L112.684 17.5075C112.693 17.5918 112.728 17.6612 112.79 17.7156C112.852 17.7699 112.921 17.7918 112.998 17.7811C113.073 17.7708 113.134 17.7308 113.182 17.6612C113.23 17.5915 113.25 17.5145 113.241 17.4303L113.098 16.1169C113.081 15.964 113.115 15.8269 113.199 15.7053C113.285 15.5809 113.396 15.5094 113.531 15.4907L113.612 15.4794C113.745 15.461 113.867 15.5004 113.977 15.5976C114.087 15.6948 114.15 15.8184 114.167 15.969L114.31 17.2824C114.319 17.3666 114.354 17.436 114.415 17.4906C114.475 17.545 114.544 17.567 114.622 17.5561C114.7 17.5454 114.762 17.5052 114.81 17.4358C114.857 17.3662 114.876 17.2894 114.867 17.2049L114.739 16.03ZM110.148 16.8308C110.165 16.9839 110.13 17.1225 110.045 17.2469C110.004 17.3063 109.955 17.3543 109.899 17.3915C109.843 17.4288 109.782 17.4519 109.717 17.461L109.448 17.4982C109.385 17.5069 109.322 17.5009 109.26 17.4801C109.197 17.4593 109.138 17.4259 109.084 17.38C109.031 17.3337 108.989 17.2789 108.956 17.215C108.923 17.1514 108.902 17.0813 108.894 17.0049L108.861 16.7042C108.853 16.6304 108.859 16.5581 108.877 16.4873C108.895 16.4164 108.925 16.3515 108.966 16.2922C109.056 16.1672 109.166 16.0959 109.294 16.0782L109.563 16.0409C109.695 16.0225 109.817 16.0619 109.927 16.1591C110.037 16.2563 110.1 16.3801 110.116 16.5305L110.149 16.831L110.148 16.8308ZM109.238 15.5916C109.093 15.6118 108.961 15.6615 108.842 15.741C108.722 15.8205 108.62 15.921 108.537 16.0423C108.452 16.1637 108.391 16.3002 108.352 16.4514C108.312 16.6028 108.302 16.759 108.319 16.9198L108.352 17.2206C108.369 17.3841 108.414 17.5339 108.484 17.67C108.555 17.8062 108.644 17.9215 108.751 18.0165C108.859 18.1115 108.979 18.1811 109.112 18.2256C109.245 18.2701 109.384 18.2822 109.529 18.2622L109.799 18.2248C109.941 18.205 110.073 18.1551 110.195 18.0754C110.317 17.9957 110.419 17.8952 110.502 17.7738C110.585 17.6525 110.646 17.5162 110.687 17.3648C110.727 17.2132 110.739 17.0558 110.721 16.8922L110.688 16.5915C110.671 16.4306 110.626 16.2821 110.554 16.1461C110.483 16.0102 110.394 15.8948 110.287 15.7997C110.181 15.7045 110.06 15.6351 109.925 15.5908C109.79 15.5467 109.651 15.5344 109.508 15.5543L109.238 15.5916H109.238ZM106.914 16.1025L106.521 16.1569C106.407 16.1727 106.306 16.14 106.219 16.0582C106.175 16.0215 106.14 15.9762 106.114 15.9222C106.088 15.8683 106.071 15.811 106.065 15.7502C106.052 15.6316 106.08 15.5218 106.15 15.4213C106.219 15.3205 106.31 15.2625 106.423 15.247L107.499 15.0979C107.566 15.0859 107.621 15.0495 107.663 14.9887C107.705 14.9279 107.722 14.8593 107.713 14.7829C107.705 14.7065 107.673 14.6445 107.618 14.5973C107.563 14.5502 107.502 14.5312 107.434 14.5405L106.362 14.6892C106.217 14.7094 106.085 14.759 105.966 14.8385C105.846 14.9181 105.745 15.0171 105.662 15.1358C105.579 15.2542 105.517 15.3881 105.478 15.5368C105.438 15.6856 105.427 15.8403 105.445 16.0011C105.462 16.1647 105.507 16.3138 105.579 16.4485C105.63 16.5484 105.691 16.637 105.762 16.7143C105.833 16.7915 105.913 16.8558 106.002 16.9079C106.093 16.9649 106.191 17.0043 106.294 17.0261C106.397 17.048 106.505 17.051 106.617 17.0354L107.006 16.9814C107.055 16.9746 107.102 16.9787 107.148 16.994C107.193 17.009 107.234 17.0323 107.269 17.0634C107.305 17.0947 107.334 17.1326 107.358 17.1775C107.382 17.2224 107.397 17.2727 107.403 17.3279C107.409 17.3833 107.405 17.4366 107.392 17.4879C107.378 17.5392 107.358 17.585 107.33 17.6249C107.303 17.6649 107.268 17.6976 107.227 17.7236C107.186 17.7493 107.141 17.7656 107.092 17.7724L105.659 17.971L105.75 18.8098L107.187 18.6106C107.341 18.5893 107.482 18.5362 107.609 18.4517C107.736 18.3671 107.844 18.261 107.932 18.1339C108.02 18.0066 108.085 17.863 108.127 17.7032C108.169 17.5436 108.18 17.3767 108.161 17.2026C108.143 17.0284 108.096 16.8698 108.021 16.726C107.946 16.5824 107.852 16.4609 107.739 16.3614C107.626 16.2619 107.499 16.1886 107.358 16.1412C107.216 16.0938 107.068 16.0811 106.914 16.1023" fill="white"/>
<path d="M122.601 10.2833C122.609 10.3598 122.605 10.4335 122.588 10.504C122.571 10.5746 122.542 10.6395 122.501 10.6988C122.46 10.7579 122.411 10.8063 122.354 10.8438C122.296 10.8811 122.235 10.9044 122.17 10.9135L121.907 10.9497C121.84 10.959 121.775 10.9534 121.712 10.9326C121.65 10.9118 121.592 10.8784 121.54 10.8321C121.43 10.7349 121.367 10.6098 121.35 10.4568L121.318 10.1562C121.301 10.0059 121.336 9.86848 121.422 9.74427C121.463 9.68495 121.511 9.63675 121.568 9.59967C121.624 9.56239 121.686 9.5389 121.753 9.52963L122.015 9.49338C122.15 9.47464 122.273 9.51398 122.383 9.6112C122.435 9.65755 122.477 9.71234 122.509 9.77641C122.541 9.84047 122.561 9.90906 122.569 9.98301L122.601 10.2833ZM122.367 8.13511L122.47 9.07667C122.39 9.04206 122.308 9.01879 122.224 9.00622C122.14 8.99386 122.052 8.99386 121.961 9.00663L121.698 9.04309C121.553 9.06307 121.42 9.11313 121.298 9.19285C121.176 9.27256 121.074 9.37308 120.991 9.49441C120.908 9.61574 120.847 9.75189 120.808 9.90329C120.769 10.0547 120.758 10.2108 120.775 10.3717L120.808 10.6722C120.826 10.8358 120.87 10.9855 120.941 11.1219C121.011 11.2581 121.1 11.3734 121.206 11.4686C121.313 11.5638 121.434 11.6332 121.569 11.6772C121.705 11.7213 121.845 11.7335 121.99 11.7133L122.253 11.6768C122.447 11.6501 122.618 11.5701 122.765 11.4373C122.794 11.4869 122.831 11.5232 122.876 11.5462C122.922 11.5695 122.971 11.5773 123.025 11.5697C123.102 11.559 123.164 11.5191 123.212 11.4496C123.259 11.38 123.277 11.3032 123.268 11.2187L122.925 8.05786L122.367 8.13511ZM119.443 9.35578L119.362 9.36691C119.273 9.37926 119.188 9.40316 119.106 9.43859C119.025 9.47402 118.949 9.51934 118.879 9.57454L118.866 9.4357L118.309 9.51295L118.566 11.8707C118.575 11.9551 118.61 12.0245 118.672 12.0787C118.735 12.1329 118.803 12.1551 118.878 12.1446C118.956 12.1337 119.018 12.0938 119.066 12.0243C119.113 11.9547 119.132 11.8779 119.123 11.7934L118.98 10.4801C118.972 10.4063 118.978 10.3338 118.997 10.2627C119.017 10.1919 119.047 10.1268 119.088 10.0675C119.174 9.94325 119.283 9.87157 119.416 9.85345L119.496 9.84232C119.629 9.82399 119.75 9.86333 119.86 9.96056C119.97 10.0578 120.033 10.1816 120.049 10.332L120.192 11.6453C120.201 11.7298 120.236 11.7992 120.297 11.8538C120.358 11.9082 120.427 11.9302 120.505 11.9193C120.582 11.9084 120.645 11.8684 120.692 11.7988C120.739 11.7294 120.759 11.6523 120.749 11.5681L120.622 10.3929C120.604 10.232 120.56 10.0835 120.489 9.94758C120.419 9.81163 120.33 9.69587 120.222 9.60111C120.114 9.50615 119.993 9.43653 119.859 9.39245C119.725 9.34816 119.586 9.33621 119.443 9.35578ZM117.522 11.1361C117.53 11.2074 117.526 11.2789 117.51 11.3508C117.494 11.4224 117.465 11.4879 117.424 11.5473C117.338 11.6717 117.227 11.7432 117.092 11.7619L117.025 11.7712C116.885 11.7905 116.762 11.7514 116.657 11.6536C116.604 11.6072 116.562 11.5516 116.53 11.4865C116.498 11.4212 116.478 11.3532 116.471 11.282L116.308 9.79041L115.877 9.85015L116.04 11.3417C116.057 11.505 116.101 11.6544 116.172 11.7893C116.242 11.924 116.331 12.039 116.437 12.1339C116.543 12.2291 116.664 12.2985 116.798 12.343C116.932 12.3873 117.071 12.3994 117.216 12.3793L117.283 12.37C117.427 12.35 117.56 12.3002 117.681 12.2204C117.801 12.1407 117.903 12.0402 117.986 11.9191C118.069 11.7978 118.13 11.6622 118.169 11.5123C118.209 11.3621 118.22 11.2053 118.202 11.0418L118.04 9.55023L117.36 9.64457L117.522 11.1361ZM115.246 11.303C115.263 11.456 115.228 11.5944 115.142 11.7191C115.101 11.7782 115.053 11.8264 114.996 11.8637C114.94 11.9007 114.879 11.924 114.814 11.9331L114.545 11.9704C114.482 11.979 114.419 11.973 114.357 11.9522C114.294 11.9314 114.236 11.8981 114.181 11.8521C114.129 11.8058 114.086 11.7508 114.053 11.6871C114.021 11.6233 114 11.5532 113.992 11.4768L113.959 11.1763C113.951 11.1023 113.956 11.03 113.974 10.9594C113.993 10.8885 114.022 10.8236 114.063 10.7641C114.154 10.6391 114.263 10.5678 114.391 10.5501L114.66 10.5128C114.793 10.4945 114.914 10.5338 115.024 10.631C115.134 10.7285 115.197 10.8521 115.214 11.0024L115.246 11.303ZM114.335 10.0638C114.191 10.0837 114.059 10.1336 113.939 10.2131C113.82 10.2926 113.718 10.3929 113.634 10.5142C113.55 10.6358 113.488 10.7721 113.449 10.9235C113.41 11.0747 113.399 11.2309 113.416 11.392L113.449 11.6925C113.467 11.856 113.511 12.0058 113.582 12.1422C113.652 12.2783 113.741 12.3937 113.849 12.4886C113.956 12.5834 114.076 12.6532 114.209 12.6977C114.342 12.742 114.481 12.7544 114.626 12.7342L114.896 12.6969C115.038 12.6771 115.17 12.6273 115.292 12.5475C115.414 12.4676 115.516 12.3673 115.599 12.246C115.682 12.1247 115.744 11.9883 115.784 11.8367C115.825 11.6853 115.836 11.5277 115.818 11.3641L115.785 11.0636C115.768 10.9027 115.723 10.7542 115.652 10.6183C115.58 10.4823 115.491 10.367 115.385 10.2718C115.278 10.1768 115.157 10.1072 115.022 10.0631C114.887 10.0191 114.748 10.0067 114.606 10.0265L114.335 10.0638ZM112.804 10.2761C112.718 10.2881 112.634 10.3118 112.552 10.3472C112.471 10.3826 112.395 10.4279 112.325 10.4831L112.31 10.3447L111.753 10.422L112.009 12.7799C112.018 12.8643 112.053 12.9338 112.114 12.9881C112.175 13.0427 112.244 13.0646 112.322 13.0539C112.399 13.0429 112.462 13.003 112.509 12.9334C112.557 12.8639 112.576 12.7869 112.567 12.7026L112.424 11.3893C112.416 11.3153 112.421 11.243 112.439 11.1722C112.457 11.1015 112.487 11.0364 112.528 10.9771C112.619 10.8521 112.729 10.7806 112.857 10.7629L112.941 10.7513C112.995 10.7439 113.044 10.7464 113.088 10.7592L113.033 10.2568C112.986 10.2553 112.937 10.258 112.888 10.2646L112.804 10.2761ZM109.933 10.5655L110.623 12L109.575 12.1452L109.933 10.5655ZM109.426 12.8005L110.908 12.5949L111.212 13.2314L111.79 13.1513L110.044 9.62624L110.03 9.59225L110.026 9.58875L110.013 9.57042C109.973 9.50636 109.922 9.45857 109.859 9.42705C109.832 9.41469 109.804 9.40728 109.777 9.40439C109.749 9.40151 109.722 9.40172 109.697 9.40542C109.638 9.41346 109.589 9.43509 109.547 9.47031L109.528 9.48905C109.476 9.53911 109.439 9.60049 109.416 9.67321L108.48 13.5859L109.272 13.4761L109.426 12.8005Z" fill="white"/>
</svg>
