<svg width="200" height="48" viewBox="0 0 200 48" fill="none" xmlns="http://www.w3.org/2000/svg">
<path d="M11.2878 28.118C9.88291 28.118 8.56069 27.8563 7.32112 27.3329C6.10909 26.782 5.04857 26.0521 4.13955 25.143C3.23053 24.234 2.50056 23.1597 1.94964 21.9201C1.42626 20.6806 1.16458 19.3584 1.16458 17.9535C1.16458 16.5487 1.42626 15.2402 1.94964 14.0282C2.50056 12.7886 3.23053 11.7143 4.13955 10.8053C5.04857 9.89629 6.10909 9.18009 7.32112 8.65672C8.56069 8.1058 9.88291 7.83033 11.2878 7.83033C12.3896 7.83033 13.4501 8.00938 14.4693 8.36748C15.4885 8.69804 16.4251 9.18009 17.279 9.81365C18.133 10.4197 18.8629 11.1496 19.4689 12.0036C20.1025 12.8575 20.5846 13.7803 20.9151 14.7719H24.9231V7.70638H31.2449V27.9114H24.9231V21.0938H20.9564C20.6259 22.113 20.1438 23.0633 19.5103 23.9448C18.8767 24.7987 18.133 25.5425 17.279 26.176C16.4526 26.782 15.5161 27.2641 14.4693 27.6222C13.4501 27.9527 12.3896 28.118 11.2878 28.118ZM11.2878 14.9372C10.4614 14.9372 9.74518 15.2402 9.13916 15.8462C8.56069 16.4247 8.27146 17.1271 8.27146 17.9535C8.27146 18.7799 8.56069 19.4961 9.13916 20.1021C9.74518 20.6806 10.4614 20.9698 11.2878 20.9698C12.1141 20.9698 12.8166 20.6806 13.395 20.1021C14.001 19.4961 14.304 18.7799 14.304 17.9535C14.304 17.1271 14.001 16.4247 13.395 15.8462C12.8166 15.2402 12.1141 14.9372 11.2878 14.9372ZM69.2707 24.0274L63.3621 27.9527L60.5937 23.4076L56.2552 16.2594L51.9167 23.4076L49.1483 27.9527L46.0907 26.3413C45.65 26.0934 45.2505 25.8592 44.8924 25.6389C44.5619 25.4185 44.3278 25.1017 44.19 24.6885C43.887 23.8897 44.011 23.0358 44.5619 22.1267L45.3883 20.7632L46.9997 18.0775L45.9254 16.2594L41.5869 23.4076L38.8185 27.9527L35.7609 26.3413C35.3202 26.0934 34.9208 25.8592 34.5627 25.6389C34.2321 25.4185 33.998 25.1017 33.8602 24.6885C33.5572 23.8897 33.6812 23.0358 34.2321 22.1267L35.0585 20.7632L38.5706 15.0199L39.1078 14.1108L42.9918 7.7477H48.9004L51.0903 11.3838L53.3215 7.7477H59.2302L63.0728 14.1108L63.3621 14.5653H71.1714V7.7477H77.4932V27.9527H71.1714V20.8872H67.2048L69.2707 24.0274ZM62.5357 30.7624C63.1968 30.1564 63.9405 29.8534 64.7669 29.8534H77.6998V47.1248H61.6267V32.9937C61.6267 32.1122 61.9297 31.3684 62.5357 30.7624ZM67.9072 39.3155C67.9072 40.3622 68.4306 40.8856 69.4773 40.8856H71.3367V36.1339H69.4773C68.4306 36.1339 67.9072 36.6573 67.9072 37.704V39.3155ZM81.5109 8.6154C82.0893 8.00939 82.8331 7.70638 83.7421 7.70638H97.5013V27.9114H80.6018V10.8466C80.6018 9.93761 80.9048 9.19387 81.5109 8.6154ZM113.409 21.0938H108.781V27.9114H102.46V7.70638H108.781V14.7719H113.409V21.0938ZM86.8823 20.0608C86.8823 21.1075 87.4057 21.6309 88.4525 21.6309H91.1382V13.9869H88.4525C87.4057 13.9869 86.8823 14.5103 86.8823 15.557V20.0608ZM130.515 14.6067H133.201V7.78902H138.903V27.9941H133.201V21.0524H130.515V24.8538C130.515 25.7353 130.212 26.479 129.606 27.085C129 27.691 128.243 27.9941 127.334 27.9941H124.193V23.0358H116.302V16.7139H124.193V15.681C124.193 14.6342 123.67 14.1108 122.623 14.1108H116.302V7.78902H130.515V14.6067ZM141.341 7.78902H147.043V27.9941H141.341V7.78902ZM133.738 29.9774H138.159L147.663 43.3648L142.58 47.0008L135.969 37.6627L129.317 47.0008L126.135 44.7283C125.777 44.4804 125.529 44.1636 125.392 43.778C125.254 43.4474 125.199 43.0342 125.226 42.5384C125.282 42.0701 125.543 41.5054 126.012 40.8443L133.738 29.9774Z" fill="#FF914D"/>
<path d="M160.748 10.3342C162.584 10.1675 164.343 10.5775 165.876 11.4246C167.254 10.3129 168.924 9.59163 170.76 9.42519C172.596 9.25845 174.355 9.66843 175.888 10.5156C177.266 9.40416 178.936 8.68289 180.771 8.51615C186.042 8.03725 190.684 12.3068 191.14 18.0518C191.596 23.7969 187.692 28.842 182.422 29.3206C180.586 29.4874 178.826 29.0774 177.293 28.2303C175.916 29.3417 174.246 30.0629 172.41 30.2297C170.574 30.3964 168.814 29.9864 167.282 29.1393C165.904 30.2507 164.234 30.972 162.398 31.1387C157.127 31.6173 152.485 27.3478 152.03 21.603C151.574 15.8579 155.477 10.8128 160.748 10.3342Z" fill="#FF914D"/>
<path d="M168.745 9.12475C170.581 8.95801 172.34 9.368 173.873 10.2151C175.251 9.10343 176.921 8.38216 178.756 8.21571C180.592 8.04897 182.352 8.45896 183.885 9.30609C185.263 8.19469 186.932 7.47341 188.768 7.30668C194.039 6.82777 198.681 11.0973 199.137 16.8424C199.593 22.5874 195.689 27.6326 190.419 28.1112C188.583 28.2779 186.823 27.8679 185.29 27.0208C183.912 28.1322 182.243 28.8535 180.407 29.0202C178.571 29.187 176.811 28.777 175.278 27.9298C173.901 29.0412 172.231 29.7625 170.395 29.9292C165.124 30.4079 160.482 26.1383 160.026 20.3935C159.571 14.6485 163.474 9.60336 168.745 9.12475Z" fill="#FF914D"/>
<path d="M159.385 29.6272L151.313 34.2778L154.804 25.5229" fill="#FF914D"/>
<path d="M188.827 20.7831C188.815 20.6821 188.822 20.5805 188.848 20.4786C188.873 20.3766 188.919 20.2832 188.984 20.1988C189.11 20.0268 189.275 19.9275 189.479 19.901L189.878 19.8487C189.973 19.8364 190.068 19.8437 190.164 19.8712C190.26 19.8983 190.347 19.945 190.426 20.0105C190.505 20.0762 190.568 20.155 190.617 20.2476C190.665 20.3401 190.695 20.4365 190.706 20.5375L190.755 20.9639C190.78 21.1806 190.73 21.375 190.604 21.5473C190.542 21.6349 190.469 21.7053 190.382 21.7585C190.295 21.8116 190.205 21.8443 190.11 21.8566L189.71 21.9088C189.503 21.9357 189.32 21.8779 189.161 21.7357C189.079 21.6706 189.014 21.5935 188.966 21.505C188.919 21.4165 188.888 21.3178 188.876 21.2092L188.827 20.7831ZM190.228 22.8944C190.496 22.8593 190.736 22.7691 190.948 22.624L190.98 22.9043C190.989 22.9829 190.984 23.0585 190.964 23.1312C190.943 23.2039 190.912 23.2687 190.871 23.3254C190.829 23.382 190.777 23.4296 190.716 23.4679C190.654 23.5064 190.586 23.5304 190.512 23.54L189.662 23.6507C189.546 23.6659 189.452 23.722 189.379 23.8186C189.306 23.9153 189.277 24.0254 189.291 24.1489C189.305 24.2721 189.359 24.3717 189.451 24.4467C189.544 24.5218 189.648 24.5519 189.765 24.5367L190.615 24.426C190.706 24.414 190.797 24.3939 190.886 24.365C190.976 24.3361 191.059 24.2958 191.135 24.2444C191.294 24.1398 191.428 24.0178 191.537 23.8782C191.648 23.7231 191.727 23.5552 191.774 23.3745C191.827 23.1852 191.842 22.9913 191.819 22.7931L191.42 19.3403C191.406 19.2168 191.353 19.1172 191.262 19.0416C191.171 18.9662 191.068 18.9358 190.952 18.951C190.871 18.9618 190.802 18.9916 190.745 19.0407C190.688 19.09 190.645 19.1546 190.615 19.234C190.486 19.175 190.354 19.1333 190.217 19.1096C190.08 19.0857 189.938 19.0833 189.79 19.1026L189.389 19.1549C189.17 19.1832 188.971 19.2541 188.789 19.3672C188.607 19.4802 188.454 19.6227 188.329 19.795C188.204 19.967 188.112 20.1606 188.053 20.3755C187.994 20.5904 187.978 20.812 188.004 21.0404L188.053 21.4673C188.08 21.6995 188.147 21.9123 188.253 22.1057C188.359 22.2987 188.493 22.4628 188.653 22.598C188.813 22.7329 188.994 22.8319 189.196 22.8947C189.398 22.9575 189.608 22.975 189.827 22.9464L190.228 22.8941L190.228 22.8944ZM185.942 19.679L185.82 19.6948C185.687 19.7123 185.558 19.7462 185.435 19.7964C185.312 19.8466 185.198 19.9109 185.092 19.9891L185.073 19.7923L184.234 19.9018L184.62 23.2445C184.634 23.3642 184.688 23.4624 184.781 23.5394C184.874 23.6162 184.978 23.6478 185.091 23.6329C185.208 23.6174 185.302 23.5608 185.374 23.4621C185.445 23.3637 185.474 23.2544 185.46 23.135L185.245 21.2731C185.232 21.1683 185.241 21.0658 185.27 20.9651C185.3 20.8643 185.345 20.7723 185.406 20.6882C185.536 20.5118 185.7 20.4105 185.9 20.3845L186.021 20.3688C186.221 20.3428 186.404 20.3988 186.569 20.5364C186.735 20.6742 186.83 20.8497 186.855 21.0629L187.07 22.9248C187.084 23.0445 187.136 23.1429 187.228 23.22C187.32 23.2974 187.424 23.3283 187.541 23.3131C187.658 23.2977 187.752 23.2407 187.823 23.1423C187.895 23.0439 187.923 22.9347 187.909 22.8152L187.717 21.1493C187.69 20.9212 187.624 20.7107 187.517 20.518C187.411 20.325 187.277 20.1611 187.114 20.0268C186.952 19.8922 186.77 19.7935 186.568 19.731C186.365 19.6682 186.157 19.6507 185.941 19.6787M183.508 19.5327C183.578 19.4153 183.605 19.2801 183.587 19.1268L183.527 18.6108L182.598 18.732L182.658 19.248C182.675 19.4016 182.732 19.5257 182.827 19.6218C182.922 19.7176 183.04 19.7564 183.181 19.7377C183.329 19.7184 183.437 19.6501 183.508 19.5327ZM183.98 23.6154C184.05 23.4983 184.076 23.3607 184.058 23.2039L183.687 19.9959L182.758 20.117L183.129 23.3251C183.147 23.4822 183.203 23.6084 183.299 23.7041C183.394 23.7999 183.512 23.8388 183.652 23.8204C183.8 23.8011 183.909 23.7328 183.98 23.6154ZM180.317 23.8055L180.102 21.9436C180.078 21.7304 180.13 21.5356 180.259 21.3596C180.388 21.1835 180.553 21.0821 180.753 21.0562L180.963 21.0287C181.163 21.0027 181.35 21.0579 181.522 21.1949C181.601 21.2606 181.664 21.3385 181.712 21.4294C181.76 21.5202 181.79 21.6174 181.802 21.722L182.018 23.5838C182.031 23.7036 182.085 23.802 182.178 23.8791C182.27 23.9559 182.375 23.9871 182.491 23.9719C182.547 23.9646 182.599 23.9453 182.645 23.9147C182.692 23.884 182.732 23.8463 182.766 23.802C182.8 23.7579 182.825 23.7071 182.842 23.6498C182.859 23.5926 182.864 23.5339 182.857 23.4743L182.664 21.8087C182.638 21.5806 182.57 21.3701 182.462 21.1773C182.354 20.9846 182.219 20.8214 182.057 20.6868C181.895 20.5521 181.713 20.4534 181.511 20.3907C181.309 20.3279 181.099 20.3106 180.881 20.3393L180.67 20.3667C180.536 20.3842 180.409 20.4181 180.288 20.4678C180.167 20.5177 180.053 20.5819 179.948 20.6599L179.799 19.3245L178.96 19.434L179.478 23.9153C179.492 24.035 179.544 24.1334 179.636 24.2105C179.727 24.2879 179.832 24.3188 179.948 24.3036C180.066 24.2882 180.159 24.2312 180.231 24.1328C180.302 24.0344 180.331 23.9252 180.317 23.8055ZM178.199 20.6891L178.114 19.9488L177.274 20.0583L177.36 20.7986L176.911 20.8573C176.795 20.8725 176.701 20.9283 176.63 21.0249C176.559 21.1216 176.531 21.2314 176.545 21.3546C176.559 21.4781 176.612 21.5774 176.703 21.653C176.794 21.7287 176.897 21.7585 177.013 21.7436L177.462 21.6849L177.746 24.1413C177.76 24.2607 177.812 24.3594 177.904 24.4365C177.996 24.5136 178.1 24.5448 178.217 24.5297C178.334 24.5142 178.428 24.4572 178.499 24.3588C178.571 24.2604 178.599 24.1512 178.586 24.0315L178.302 21.5751L178.93 21.493L178.827 20.6068L178.199 20.6891ZM174.316 22.6529C174.3 22.4578 174.353 22.2779 174.473 22.1144C174.535 22.0303 174.608 21.962 174.694 21.9091C174.778 21.8563 174.872 21.8233 174.974 21.8098L175.418 21.752C175.52 21.7389 175.61 21.7649 175.689 21.8303C175.768 21.896 175.813 21.9792 175.825 22.0803C175.837 22.1813 175.813 22.2727 175.752 22.3545C175.692 22.4365 175.611 22.4841 175.509 22.4972L174.316 22.6529ZM174.894 21.1198C174.676 21.1484 174.476 21.2191 174.294 21.3321C174.113 21.4448 173.959 21.5873 173.835 21.759C173.71 21.931 173.618 22.1243 173.559 22.3387C173.499 22.5533 173.483 22.7747 173.51 23.0027L173.559 23.4291C173.585 23.6609 173.652 23.8729 173.759 24.0662C173.865 24.2593 173.998 24.4231 174.158 24.5577C174.319 24.6923 174.5 24.791 174.702 24.8541C174.904 24.9169 175.114 24.9341 175.332 24.9055L176.42 24.7636L176.295 23.6811L175.207 23.823C175.105 23.8361 175.006 23.8282 174.912 23.799C174.817 23.7695 174.731 23.722 174.651 23.6565C174.552 23.5707 174.474 23.4653 174.417 23.3397L175.589 23.1867C175.722 23.1692 175.848 23.1274 175.965 23.0608C176.083 22.9943 176.183 22.9026 176.266 22.7852C176.346 22.676 176.405 22.5527 176.443 22.4149C176.48 22.2771 176.491 22.1372 176.475 21.9953C176.458 21.8531 176.416 21.7211 176.349 21.599C176.281 21.4769 176.196 21.3715 176.092 21.2825C175.986 21.194 175.868 21.1306 175.738 21.0924C175.609 21.0544 175.477 21.0439 175.343 21.0611L174.894 21.1198ZM173.166 23.0477C173.14 22.8196 173.074 22.6091 172.967 22.4161C172.861 22.223 172.727 22.0592 172.567 21.9246C172.407 21.7897 172.226 21.6913 172.023 21.6282C171.821 21.5654 171.611 21.5482 171.393 21.5768L171.271 21.5926C171.039 21.623 170.828 21.6998 170.64 21.8227C170.453 21.9459 170.296 22.101 170.171 22.2882C170.004 22.1392 169.814 22.0294 169.602 21.9582C169.39 21.8872 169.171 21.8665 168.946 21.8957L168.814 21.9132C168.68 21.9307 168.553 21.9643 168.434 22.014C168.314 22.0636 168.202 22.1278 168.096 22.2061L168.073 22.0099L167.234 22.1194L167.62 25.4621C167.634 25.5818 167.686 25.6802 167.777 25.7576C167.868 25.8347 167.972 25.8659 168.088 25.8507C168.204 25.8355 168.299 25.7786 168.371 25.6799C168.444 25.5812 168.473 25.472 168.459 25.3526L168.244 23.4904C168.232 23.3858 168.239 23.2833 168.265 23.1832C168.291 23.083 168.335 22.991 168.396 22.9069C168.533 22.7297 168.698 22.6284 168.892 22.6032L169.024 22.586C169.218 22.5606 169.401 22.6164 169.574 22.7533C169.653 22.819 169.717 22.897 169.765 22.9875C169.812 23.0781 169.843 23.1756 169.855 23.2804L170.07 25.1423C170.084 25.2617 170.137 25.3601 170.23 25.4372C170.323 25.5143 170.427 25.5453 170.543 25.5301C170.656 25.5155 170.749 25.4588 170.821 25.3601C170.894 25.2614 170.923 25.1522 170.909 25.0328L170.694 23.1709C170.669 22.9542 170.72 22.7598 170.846 22.5875C170.976 22.4111 171.143 22.3098 171.347 22.2832L171.468 22.2671C171.669 22.2411 171.852 22.2969 172.019 22.4348C172.184 22.5726 172.28 22.7478 172.304 22.9613L172.52 24.8231C172.533 24.9426 172.586 25.041 172.678 25.1184C172.769 25.1954 172.873 25.2267 172.991 25.2112C173.107 25.196 173.201 25.1391 173.273 25.0407C173.344 24.942 173.373 24.8331 173.359 24.7133L173.166 23.0477ZM166.25 24.183C166.275 24.4 166.223 24.5965 166.094 24.7729C166.032 24.857 165.959 24.925 165.874 24.9779C165.79 25.0308 165.698 25.0635 165.6 25.0763L165.195 25.1292C165.1 25.1414 165.005 25.133 164.911 25.1035C164.817 25.074 164.729 25.0267 164.646 24.9615C164.567 24.8958 164.503 24.8182 164.454 24.7276C164.404 24.6374 164.373 24.5381 164.36 24.4298L164.311 24.0035C164.299 23.8989 164.307 23.7964 164.335 23.696C164.362 23.5955 164.407 23.5035 164.469 23.4194C164.605 23.2422 164.77 23.1411 164.962 23.116L165.368 23.0632C165.568 23.0372 165.751 23.093 165.916 23.2308C166.082 23.3686 166.177 23.5441 166.202 23.7573L166.251 24.1833L166.25 24.183ZM164.879 22.4263C164.66 22.4549 164.461 22.5253 164.281 22.638C164.102 22.7507 163.948 22.8932 163.822 23.0652C163.695 23.2372 163.602 23.4308 163.543 23.6452C163.484 23.8598 163.468 24.0811 163.494 24.3092L163.543 24.7355C163.57 24.9674 163.636 25.1797 163.743 25.3727C163.849 25.5657 163.983 25.7293 164.145 25.8639C164.307 25.9985 164.488 26.0972 164.689 26.1603C164.889 26.2233 165.098 26.2406 165.317 26.2122L165.723 26.1591C165.938 26.1311 166.137 26.0604 166.32 25.9474C166.504 25.8344 166.658 25.6919 166.783 25.5199C166.908 25.3479 167.001 25.1546 167.062 24.9399C167.122 24.725 167.14 24.5019 167.113 24.2701L167.064 23.8437C167.037 23.6157 166.97 23.4051 166.862 23.2124C166.754 23.0197 166.62 22.8561 166.46 22.7212C166.299 22.5863 166.117 22.4879 165.913 22.4251C165.71 22.3626 165.5 22.3451 165.286 22.3734L164.879 22.4263H164.879ZM161.377 23.1505L160.786 23.2276C160.613 23.2501 160.462 23.2036 160.33 23.0877C160.263 23.0357 160.21 22.9715 160.171 22.895C160.132 22.8185 160.108 22.7373 160.098 22.6511C160.078 22.4829 160.121 22.3273 160.226 22.1848C160.331 22.042 160.468 21.9596 160.637 21.9377L162.258 21.7263C162.359 21.7094 162.442 21.6577 162.505 21.5716C162.568 21.4854 162.594 21.3882 162.581 21.2798C162.569 21.1715 162.521 21.0836 162.438 21.0167C162.356 20.9499 162.263 20.923 162.161 20.9361L160.545 21.147C160.327 21.1756 160.128 21.246 159.948 21.3587C159.768 21.4714 159.616 21.6119 159.49 21.7801C159.365 21.948 159.273 22.1378 159.213 22.3486C159.153 22.5594 159.137 22.7787 159.163 23.0068C159.19 23.2387 159.257 23.4501 159.365 23.6411C159.442 23.7827 159.534 23.9083 159.642 24.0178C159.749 24.1273 159.869 24.2184 160.003 24.2923C160.141 24.3731 160.287 24.4289 160.443 24.4599C160.598 24.4908 160.76 24.4952 160.929 24.473L161.516 24.3965C161.59 24.3869 161.661 24.3927 161.729 24.4143C161.798 24.4356 161.859 24.4686 161.912 24.5127C161.966 24.5571 162.01 24.6108 162.046 24.6745C162.082 24.7382 162.104 24.8094 162.113 24.8877C162.123 24.9662 162.117 25.0419 162.097 25.1146C162.077 25.1873 162.046 25.2521 162.004 25.3088C161.963 25.3654 161.911 25.4118 161.849 25.4486C161.787 25.4851 161.719 25.5082 161.645 25.5178L159.486 25.7993L159.623 26.9884L161.788 26.706C162.021 26.676 162.232 26.6006 162.424 26.4809C162.616 26.3609 162.778 26.2105 162.911 26.0303C163.043 25.8499 163.141 25.6463 163.205 25.4197C163.268 25.1934 163.285 24.9569 163.256 24.7101C163.228 24.4631 163.157 24.2382 163.045 24.0344C162.932 23.8309 162.79 23.6586 162.62 23.5175C162.45 23.3765 162.259 23.2725 162.046 23.2054C161.833 23.1382 161.61 23.1201 161.378 23.1502" fill="white"/>
<path d="M185.012 14.9025C185.024 15.0108 185.017 15.1153 184.992 15.2152C184.966 15.3154 184.922 15.4074 184.861 15.4915C184.799 15.5753 184.725 15.6439 184.639 15.697C184.552 15.7499 184.46 15.7829 184.362 15.7957L183.967 15.8471C183.865 15.8603 183.767 15.8524 183.672 15.8229C183.578 15.7934 183.491 15.7461 183.413 15.6804C183.247 15.5426 183.152 15.3653 183.127 15.1483L183.078 14.7223C183.053 14.5091 183.105 14.3144 183.235 14.1383C183.296 14.0542 183.369 13.9858 183.454 13.9333C183.539 13.8804 183.632 13.8471 183.734 13.834L184.129 13.7826C184.333 13.756 184.517 13.8118 184.683 13.9496C184.762 14.0153 184.825 14.093 184.873 14.1838C184.921 14.2746 184.951 14.3719 184.963 14.4767L185.012 14.9025ZM184.66 11.8571L184.814 13.1919C184.694 13.1428 184.57 13.1098 184.443 13.092C184.316 13.0745 184.184 13.0745 184.047 13.0926L183.651 13.1443C183.433 13.1726 183.232 13.2435 183.048 13.3566C182.865 13.4696 182.711 13.6121 182.586 13.7841C182.461 13.9561 182.369 14.1491 182.31 14.3637C182.251 14.5783 182.234 14.7997 182.261 15.0277L182.31 15.4538C182.337 15.6857 182.403 15.8979 182.51 16.0913C182.616 16.2843 182.75 16.4478 182.91 16.5827C183.071 16.7176 183.253 16.816 183.457 16.8785C183.661 16.941 183.872 16.9582 184.091 16.9296L184.487 16.8779C184.78 16.84 185.037 16.7267 185.259 16.5383C185.303 16.6087 185.359 16.6601 185.426 16.6928C185.495 16.7258 185.569 16.7369 185.651 16.7261C185.767 16.7109 185.86 16.6543 185.931 16.5559C186.002 16.4571 186.031 16.3482 186.017 16.2285L185.499 11.7476L184.66 11.8571ZM180.253 13.5875L180.132 13.6033C179.998 13.6208 179.869 13.6547 179.746 13.7049C179.623 13.7552 179.509 13.8194 179.404 13.8977L179.385 13.7008L178.546 13.8103L178.932 17.1527C178.946 17.2725 178.999 17.3709 179.093 17.4477C179.186 17.5245 179.289 17.556 179.403 17.5411C179.52 17.5256 179.614 17.469 179.685 17.3706C179.756 17.2719 179.785 17.1629 179.772 17.0432L179.557 15.1813C179.544 15.0768 179.553 14.974 179.582 14.8733C179.612 14.7728 179.657 14.6805 179.719 14.5964C179.848 14.4204 180.012 14.3187 180.212 14.293L180.333 14.2773C180.533 14.2513 180.716 14.3071 180.882 14.4449C181.047 14.5827 181.142 14.7582 181.167 14.9714L181.382 16.8333C181.396 16.953 181.448 17.0514 181.54 17.1288C181.632 17.2059 181.736 17.2371 181.853 17.2216C181.97 17.2062 182.064 17.1495 182.135 17.0508C182.207 16.9524 182.235 16.8432 182.222 16.7238L182.029 15.0578C182.003 14.8298 181.936 14.6192 181.83 14.4265C181.724 14.2338 181.589 14.0696 181.427 13.9353C181.265 13.8007 181.082 13.702 180.88 13.6395C180.678 13.5767 180.469 13.5598 180.253 13.5875ZM177.359 16.1114C177.371 16.2124 177.365 16.3138 177.341 16.4157C177.316 16.5173 177.274 16.6102 177.212 16.6943C177.082 16.8706 176.915 16.972 176.711 16.9985L176.611 17.0117C176.4 17.0391 176.215 16.9837 176.056 16.8449C175.977 16.7792 175.913 16.7004 175.865 16.6081C175.817 16.5156 175.787 16.4192 175.775 16.3182L175.531 14.2037L174.881 14.2884L175.126 16.4028C175.153 16.6344 175.219 16.8461 175.325 17.0374C175.431 17.2284 175.564 17.3913 175.725 17.5259C175.885 17.6608 176.066 17.7592 176.268 17.8223C176.47 17.8851 176.68 17.9023 176.898 17.8737L176.999 17.8606C177.217 17.8322 177.417 17.7616 177.599 17.6486C177.78 17.5356 177.934 17.3931 178.058 17.2213C178.183 17.0494 178.275 16.8572 178.334 16.6446C178.394 16.4317 178.41 16.2095 178.383 15.9777L178.139 13.8632L177.115 13.9969L177.359 16.1114ZM173.93 16.3479C173.955 16.5649 173.903 16.7611 173.774 16.9378C173.712 17.0216 173.639 17.0899 173.554 17.1428C173.469 17.1954 173.378 17.2284 173.28 17.2412L172.874 17.2941C172.779 17.3063 172.685 17.2979 172.591 17.2684C172.496 17.2389 172.408 17.1916 172.326 17.1264C172.247 17.0607 172.183 16.9828 172.133 16.8925C172.084 16.802 172.053 16.7027 172.04 16.5944L171.991 16.1683C171.979 16.0635 171.987 15.961 172.014 15.8609C172.042 15.7604 172.087 15.6684 172.148 15.584C172.285 15.4068 172.449 15.3057 172.642 15.2806L173.048 15.2278C173.247 15.2018 173.431 15.2576 173.596 15.3954C173.762 15.5335 173.857 15.7087 173.881 15.9219L173.93 16.3479ZM172.558 14.5912C172.34 14.6195 172.141 14.6902 171.961 14.8029C171.781 14.9156 171.628 15.0578 171.501 15.2298C171.375 15.4021 171.282 15.5954 171.223 15.81C171.164 16.0244 171.147 16.2457 171.174 16.4741L171.223 16.9001C171.25 17.132 171.316 17.3443 171.422 17.5376C171.529 17.7306 171.663 17.8942 171.825 18.0288C171.987 18.1631 172.168 18.2621 172.368 18.3252C172.569 18.3879 172.778 18.4055 172.996 18.3768L173.403 18.324C173.617 18.296 173.816 18.2253 174 18.1123C174.183 17.999 174.337 17.8568 174.462 17.6848C174.587 17.5128 174.68 17.3195 174.741 17.1045C174.802 16.8899 174.819 16.6665 174.792 16.4347L174.743 16.0086C174.717 15.7806 174.649 15.57 174.541 15.3773C174.433 15.1846 174.299 15.021 174.139 14.8861C173.979 14.7515 173.797 14.6528 173.593 14.5903C173.389 14.5278 173.18 14.5103 172.965 14.5383L172.558 14.5912ZM170.251 14.8923C170.121 14.9092 169.994 14.9428 169.872 14.993C169.749 15.0432 169.635 15.1075 169.529 15.1857L169.507 14.9895L168.667 15.099L169.054 18.4417C169.067 18.5614 169.12 18.6598 169.212 18.7369C169.303 18.8143 169.407 18.8452 169.525 18.8301C169.641 18.8146 169.735 18.7579 169.807 18.6592C169.878 18.5608 169.907 18.4516 169.893 18.3322L169.678 16.4703C169.666 16.3655 169.674 16.263 169.701 16.1625C169.729 16.0623 169.774 15.9701 169.835 15.886C169.972 15.7087 170.137 15.6074 170.331 15.5823L170.458 15.5659C170.539 15.5554 170.612 15.5589 170.679 15.577L170.596 14.8648C170.525 14.8628 170.452 14.8666 170.378 14.8759L170.251 14.8923ZM165.926 15.3025L166.964 17.3361L165.386 17.542L165.926 15.3025ZM165.161 18.4709L167.394 18.1794L167.852 19.0818L168.723 18.9682L166.093 13.9709L166.072 13.9228L166.066 13.9178L166.047 13.8918C165.986 13.801 165.909 13.7332 165.814 13.6886C165.773 13.6711 165.731 13.6605 165.69 13.6565C165.649 13.6524 165.608 13.6527 165.57 13.6579C165.481 13.6693 165.407 13.7 165.344 13.7499L165.315 13.7765C165.238 13.8474 165.182 13.9344 165.147 14.0375L163.736 19.5843L164.929 19.4287L165.161 18.4709Z" fill="white"/>
</svg>
