<svg width="36" height="36" viewBox="0 0 36 36" fill="none" xmlns="http://www.w3.org/2000/svg">
<circle cx="18" cy="18" r="18" fill="#7CBE12"/>
<circle cx="18" cy="18" r="17.5" stroke="#7CBE12" stroke-opacity="0.3"/>
<path d="M15.696 22.112V21.584C15.696 20.944 15.832 20.392 16.104 19.928C16.376 19.464 16.712 19.048 17.112 18.68C17.528 18.312 17.944 17.96 18.36 17.624C18.872 17.208 19.304 16.8 19.656 16.4C20.008 15.984 20.184 15.48 20.184 14.888C20.184 14.04 19.936 13.44 19.44 13.088C18.944 12.72 18.072 12.536 16.824 12.536C16.152 12.536 15.48 12.624 14.808 12.8C14.136 12.96 13.544 13.16 13.032 13.4V11.192C13.576 10.92 14.232 10.704 15 10.544C15.784 10.384 16.616 10.304 17.496 10.304C19.256 10.304 20.584 10.696 21.48 11.48C22.376 12.248 22.824 13.32 22.824 14.696C22.824 15.592 22.608 16.32 22.176 16.88C21.76 17.424 21.2 17.984 20.496 18.56C20.064 18.928 19.68 19.256 19.344 19.544C19.024 19.832 18.768 20.144 18.576 20.48C18.4 20.8 18.312 21.208 18.312 21.704V22.112H15.696ZM15.6 26V24.032H18.384V26H15.6Z" fill="white"/>
</svg>
